<?xml version="1.0" encoding="utf-8"?>
<!-- Generator: Adobe Illustrator 19.1.0, SVG Export Plug-In . SVG Version: 6.00 Build 0)  -->
<svg version="1.1" id="Layer_1" xmlns="http://www.w3.org/2000/svg" xmlns:xlink="http://www.w3.org/1999/xlink" x="0px" y="0px"
	 viewBox="0 0 1136.6 340" enable-background="new 0 0 1136.6 340" xml:space="preserve">
<g>
	<path fill="#435565" d="M149.4,274.3c-3.6-8-6.8-16.6-8.9-24.9c-10.4,15.6-27.2,25.2-54.3,25.2c-46.5,0-71.1-23.3-71.1-87.9
		c0-71.4,41.1-87.9,80.4-87.9c14.6,0,29.3,1.6,39.7,10.2c-2.1-9.2-2.1-20.1-2.1-31.9V47.8l52.2-5.7v164.4c0,19.4,0.4,39.8,5,58.9
		L149.4,274.3z M132.9,141.5c-10-4.1-19.3-5.7-28.2-5.7c-26.4,0-37.2,13.1-37.2,51c0,31.2,5,50.3,31.8,50.3
		c16.4,0,25.7-7.3,33.6-20.1V141.5z"/>
	<path fill="#435565" d="M333,274.3c-3.6-8-6.8-16.6-8.9-24.9c-10.4,15.6-26.4,25.2-55,25.2c-61.5,0-66.5-38.6-66.5-73V108l52.2-5.4
		v92.7c0,28.7,6.4,41.4,26.8,41.4c18.6,0,26.8-6.7,35-19.8V108l52.2-5.4v103.9c0,19.4,0.4,39.8,5,58.9L333,274.3z"/>
	<path fill="#435565" d="M499.2,270.8v-92.7c0-28.7-6.4-41.4-26.8-41.4c-18.6,0-26.8,6.7-35,19.8v114.4h-52.2V166.9
		c0-19.4-0.4-39.8-5-58.9l40.7-8.9c3.6,8,6.8,16.6,8.9,24.9c10.4-15.6,26.4-25.2,55-25.2c61.5,0,66.5,38.6,66.5,73v99.1H499.2z"/>
	<path fill="#435565" d="M619.6,185.7v85.1h-52.2v-223l52.2-5.7v134.1l51.1-73.6l58.2,5.1l-58.6,72l66.1,84.1L680,274.6L619.6,185.7
		z"/>
	<path fill="#435565" d="M787.5,185.7v85.1h-52.2v-223l52.2-5.7v134.1l51.1-73.6l58.2,5.1l-58.6,72l66.1,84.1l-56.5,10.8
		L787.5,185.7z"/>
	<path fill="#435565" d="M912.9,270.8c-6.8-15.6-7.9-36-7.9-57.7V47.5l52.2-5.4v174.3c0,17.2,0.4,39.5,4.6,54.5H912.9z"/>
	<path fill="#435565" d="M1060.9,274.6c-57.5,0-90.4-21.7-90.4-87.3c0-67.9,33.6-88.6,85-88.6c50.7,0,81.1,17.2,81.1,99.4
		l-112.2,10.5c3.2,20.4,13.9,28.4,35.7,28.4c19.7,0,37.2-3.5,55.4-13.1l15.7,32.2C1110.9,268.6,1088.4,274.6,1060.9,274.6z
		 M1085.9,170.5c-0.7-24.9-11.1-34.4-30.4-34.4c-21.8,0-33.2,12.1-33.2,38.6v4.8L1085.9,170.5z"/>
</g>
</svg>
